<?xml version="1.0" encoding="UTF-8" standalone="no"?>
<svg
   xmlns:dc="http://purl.org/dc/elements/1.1/"
   xmlns:cc="http://creativecommons.org/ns#"
   xmlns:rdf="http://www.w3.org/1999/02/22-rdf-syntax-ns#"
   xmlns:svg="http://www.w3.org/2000/svg"
   xmlns="http://www.w3.org/2000/svg"
   xmlns:sodipodi="http://sodipodi.sourceforge.net/DTD/sodipodi-0.dtd"
   xmlns:inkscape="http://www.inkscape.org/namespaces/inkscape"
   inkscape:version="1.0 (4035a4fb49, 2020-05-01)"
   sodipodi:docname="logo-small-white.svg"
   id="svg4"
   version="1.1"
   viewBox="0 0 68 68">
  <metadata
     id="metadata10">
    <rdf:RDF>
      <cc:Work
         rdf:about="">
        <dc:format>image/svg+xml</dc:format>
        <dc:type
           rdf:resource="http://purl.org/dc/dcmitype/StillImage" />
        <dc:title></dc:title>
      </cc:Work>
    </rdf:RDF>
  </metadata>
  <defs
     id="defs8">
    <clipPath
       id="clip-0">
      <path
         d="M 25,23.769531 H 167.24219 V 272.52734 H 25 Z m 0,0"
         clip-rule="nonzero"
         id="path2" />
    </clipPath>
    <clipPath
       id="clip-1">
      <path
         d="M 89.410156,230.37109 C 108.56641,215.80078 136.23047,208.02344 167.04297,219.89844 V 28.882812 C 150.61719,26.144531 134.58594,24.464844 119.66406,23.992188 83.722656,22.855469 55.277344,28.917969 43.570312,40.21875 33.296875,50.132812 26.628906,72.570312 25.269531,101.78516 c -1.441406,30.96093 2.96875,68.6914 12.410157,106.23828 5.730468,22.77734 13.121093,44.67187 21.578124,64.20312 2.726563,-13.51172 12.179688,-28.18359 30.152344,-41.85547 z m 0,0"
         clip-rule="nonzero"
         id="path5" />
    </clipPath>
    <clipPath
       id="clip-2">
      <path
         d="M 89.410156,230.37109 C 108.56641,215.80078 136.23047,208.02344 167.04297,219.89844 V 28.882812 C 150.61719,26.144531 134.58594,24.464844 119.66406,23.992188 83.722656,22.855469 55.277344,28.917969 43.570312,40.21875 33.296875,50.132812 26.628906,72.570312 25.269531,101.78516 c -1.441406,30.96093 2.96875,68.6914 12.410157,106.23828 5.730468,22.77734 13.121093,44.67187 21.578124,64.20312 2.726563,-13.51172 12.179688,-28.18359 30.152344,-41.85547"
         clip-rule="nonzero"
         id="path8" />
    </clipPath>
    <clipPath
       id="clip-3">
      <path
         d="M -46.023438,250.79297 154.73437,312.39844 236.89453,44.292969 36.140625,-17.316406 Z m 0,0"
         clip-rule="nonzero"
         id="path11" />
    </clipPath>
    <clipPath
       id="clip-4">
      <path
         d="M 83,38.59375 H 350.28516 V 351.51953 H 83 Z m 0,0"
         clip-rule="nonzero"
         id="path395" />
    </clipPath>
    <clipPath
       id="clip-5">
      <path
         d="M 349.78516,125.32813 C 348.43359,114.34375 338.07422,101.03516 320.60547,87.863281 301.22656,73.25 274.36719,59.632812 242.91406,48.480469 c -10.1289,-3.589844 -20.53515,-6.84375 -31.03906,-9.71875 16.57422,9.253906 34.33984,22.007812 46.78516,38.613281 18.20703,24.29297 37.37109,84.375 -12.76954,138.47266 0,0 31.45313,-40.19532 2.23047,-87.65235 C 228.5625,96.429688 190.14844,86.957031 190.14844,86.957031 V 258.05078 c 0,26.85547 -25.86719,53.49609 -58.53516,61.38281 -19.0664,4.60157 -35.781249,2.96094 -48.406249,-2.82812 12.644531,18.35937 25.886719,30.3789 37.238279,33.57031 13.46094,3.78906 34.33203,-1.05078 58.77344,-13.62109 25.55078,-13.14453 54.3125,-34.5586 80.98047,-60.29688 l 0.0156,-0.0156 c 27.57422,-26.60938 51.72266,-56.59375 67.9961,-84.41797 15.62109,-26.71875 23.48828,-50.95313 21.57422,-66.49609 z m 0,0"
         clip-rule="nonzero"
         id="path398" />
    </clipPath>
    <clipPath
       id="clip-6">
      <path
         d="M 349.78516,125.32813 C 348.43359,114.34375 338.07422,101.03516 320.60547,87.863281 301.22656,73.25 274.36719,59.632812 242.91406,48.480469 c -10.1289,-3.589844 -20.53515,-6.84375 -31.03906,-9.71875 16.57422,9.253906 34.33984,22.007812 46.78516,38.613281 18.20703,24.29297 37.37109,84.375 -12.76954,138.47266 0,0 31.45313,-40.19532 2.23047,-87.65235 C 228.5625,96.429688 190.14844,86.957031 190.14844,86.957031 V 258.05078 c 0,26.85547 -25.86719,53.49609 -58.53516,61.38281 -19.0664,4.60157 -35.781249,2.96094 -48.406249,-2.82812 12.644531,18.35937 25.886719,30.3789 37.238279,33.57031 13.46094,3.78906 34.33203,-1.05078 58.77344,-13.62109 25.55078,-13.14453 54.3125,-34.5586 80.98047,-60.29688 l 0.0156,-0.0156 c 27.57422,-26.60938 51.72266,-56.59375 67.9961,-84.41797 15.62109,-26.71875 23.48828,-50.95313 21.57422,-66.49609"
         clip-rule="nonzero"
         id="path401" />
    </clipPath>
    <clipPath
       id="clip-7">
      <path
         d="M -5.085938,326.87109 328.61719,429.27734 439.99219,65.855469 106.28516,-36.550781 Z m 0,0"
         clip-rule="nonzero"
         id="path404" />
    </clipPath>
  </defs>
  <sodipodi:namedview
     inkscape:current-layer="svg4"
     inkscape:window-maximized="1"
     inkscape:window-y="-9"
     inkscape:window-x="-9"
     inkscape:cy="31.0803"
     inkscape:cx="25.000453"
     inkscape:zoom="8.5268759"
     showgrid="false"
     id="namedview6"
     inkscape:window-height="991"
     inkscape:window-width="1920"
     inkscape:pageshadow="2"
     inkscape:pageopacity="0"
     guidetolerance="10"
     gridtolerance="10"
     objecttolerance="10"
     borderopacity="1"
     bordercolor="#666666"
     pagecolor="#000000" />
  <g
     style="fill:#ffffff"
     id="g975"
     transform="matrix(0.88225862,0,0,0.88224466,4.1482149,4.3416542)">
    <g
       style="fill:#ffffff"
       id="g886"
       clip-path="url(#clip-0)"
       transform="matrix(0.18052073,0,0,0.18052073,0.16533427,0.1528624)">
      <g
         style="fill:#ffffff"
         id="g884"
         clip-path="url(#clip-1)">
        <g
           style="fill:#ffffff"
           id="g882"
           clip-path="url(#clip-2)">
          <g
             style="fill:#ffffff"
             id="g880"
             clip-path="url(#clip-3)">
            <path
               style="fill:#ffffff"
               id="path878"
               fill-rule="nonzero"
               d="M -44.8125,250.87109 154.81641,312.13281 236.64062,45.128906 37.011719,-16.132812 Z m 0,0"
               fill="url(#radial-pattern-0)" />
          </g>
        </g>
      </g>
    </g>
    <g
       style="fill:#ffffff"
       id="g896"
       clip-path="url(#clip-4)"
       transform="matrix(0.18052073,0,0,0.18052073,0.16533427,0.1528624)">
      <g
         style="fill:#ffffff"
         id="g894"
         clip-path="url(#clip-5)">
        <g
           style="fill:#ffffff"
           id="g892"
           clip-path="url(#clip-6)">
          <g
             style="fill:#ffffff"
             id="g890"
             clip-path="url(#clip-7)">
            <path
               style="fill:#ffffff"
               id="path888"
               fill-rule="nonzero"
               d="M -4.402344,324.63672 327.32812,426.43359 437.89453,65.644531 106.16406,-36.152344 Z m 0,0"
               fill="url(#radial-pattern-1)" />
          </g>
        </g>
      </g>
    </g>
  </g>
</svg>
